<svg width="172" height="38" viewBox="0 0 172 38" fill="none" xmlns="http://www.w3.org/2000/svg">
<path d="M37.6157 37.3806H37.7693L38 37.1507L37.6929 36.3067C37.6929 35.1816 37.5715 34.1841 37.3286 33.314C37.2644 31.1142 37.1629 29.7332 37.0215 29.1694L36.0075 4.7917C35.9693 4.68934 35.3508 4.78216 34.6734 4.57744C34.5077 4.56877 34.3541 4.56009 34.2067 4.55055C34.1833 4.53928 34.1581 4.5332 34.1329 4.5332H33.1354L30.6797 4.68674H30.6033L30.527 4.61041C30.527 4.65204 30.3622 4.69021 30.0352 4.72491C29.8131 4.74833 29.5138 4.77088 29.14 4.7917C27.1882 4.90013 23.1754 4.96779 17.0964 4.99381L8.96154 4.91661L0.384276 4.5332H0.230739L0 4.76394L0.307074 5.60796C0.307074 6.73303 0.428516 7.73059 0.6714 8.60063C0.73559 10.8005 0.837081 12.1814 0.978474 12.7453L1.74095 35.5876C1.73835 35.5876 1.73575 35.5867 1.73315 35.5867C1.73662 35.6119 1.74009 35.637 1.74356 35.663L1.74442 35.6917C1.74529 35.6934 1.74789 35.6951 1.74789 35.6969C1.85546 36.4715 1.94827 37.3797 2.15212 37.3797H4.86374L7.31947 37.2262H7.3958L7.49469 37.188C7.49469 37.1464 7.63782 37.2227 7.96485 37.188C8.18691 37.1646 8.48618 37.142 8.86005 37.1212C10.8118 37.0128 14.8246 36.9451 20.9036 36.9191L29.0385 36.9963L37.6157 37.3806Z" fill="white"/>
<path d="M8.25359 8.02059C9.20951 8.19928 9.74559 8.33721 9.86269 8.43349C10.1654 8.43349 10.3164 8.47513 10.3164 8.55754C10.8316 8.68852 11.451 8.9635 12.1727 9.38247C12.3791 9.45794 12.4893 9.52647 12.5032 9.58892C12.9161 9.76762 13.1217 9.90554 13.1217 10.0018C13.3966 10.0634 14.0845 10.6411 15.1844 11.7341C15.8992 12.5113 16.4908 13.3363 16.9584 14.2098C17.1032 14.5403 17.1995 14.7051 17.2472 14.7051C17.275 14.8977 17.399 15.2143 17.6185 15.6541C17.7217 16.067 17.7902 16.2726 17.8249 16.2726C17.9073 16.7679 17.9767 17.0151 18.0314 17.0151C18.224 18.246 18.3202 19.1126 18.3202 19.6139L18.1138 21.1814C17.8249 22.2883 17.5638 22.9761 17.3305 23.2442C17.3305 23.5122 16.8907 24.1723 16.0102 25.2246C15.5774 25.575 15.3571 25.7815 15.3501 25.843L14.566 26.3791C13.872 26.7573 13.3073 26.9915 12.8744 27.0809C12.5717 27.2179 12.3106 27.2873 12.0903 27.2873C11.4787 27.4253 10.7909 27.4938 10.0275 27.4938H9.32661L9.28498 27.4521V27.4938C8.78967 27.4452 8.54245 27.4044 8.54245 27.3697C7.76522 27.3012 7.33931 27.2318 7.26384 27.1633C6.65923 27.0739 6.3565 26.9915 6.3565 26.9161C5.98523 26.8744 5.79266 26.8198 5.77878 26.7513C5.4691 26.6688 5.2774 26.5864 5.20106 26.504C4.81592 26.38 4.45853 26.2013 4.12891 25.9679C4.18442 24.9097 4.32148 23.782 4.54181 22.5849C4.65197 21.6776 4.77602 21.223 4.91307 21.223H4.99548C5.12646 21.3679 5.41532 21.5735 5.86205 21.8415L6.72863 22.2544C7.01749 22.3993 7.67761 22.5364 8.709 22.6673H9.40989C9.74038 22.6673 9.9052 22.6404 9.9052 22.5849C10.5098 22.4817 10.9774 22.3308 11.3078 22.1313C12.1397 21.7184 12.7452 21.073 13.1225 20.1925C13.2396 20.0477 13.3637 19.594 13.4938 18.8306V17.9641C13.3489 16.9743 13.2119 16.479 13.0809 16.479C13.0809 16.2595 13.054 16.1494 12.9985 16.1494C12.8744 15.8466 12.792 15.6957 12.7513 15.6957C12.524 15.1865 11.974 14.5958 11.1014 13.9218C10.5792 13.5991 10.0839 13.3788 9.61634 13.2617C9.27283 13.0969 8.65348 13.0144 7.76001 13.0144C7.10683 13.0144 6.58376 13.0422 6.19255 13.0969C5.99304 12.8288 5.88287 11.9354 5.86292 10.4156V10.3332L5.90456 9.50825H5.86292V9.42584L6.06937 8.22964C6.06937 8.06483 6.27582 7.98242 6.68786 7.98242L8.25359 8.02059Z" fill="#643869"/>
<path d="M33.7428 12.2656L33.8469 12.4044V12.4391C33.754 12.6542 33.6846 13.2346 33.6378 14.1801C33.5918 14.1801 33.5563 14.8298 33.5337 16.1292L33.3949 16.1986C30.528 16.3148 28.7185 16.4302 27.9639 16.5464C27.6273 16.5464 27.1172 16.6046 26.4328 16.7208C26.5022 17.5336 26.5369 18.3342 26.5369 19.1227L26.5014 19.3318L26.5369 19.4706L29.5652 19.2971V19.3318L29.5999 19.2971H29.9486L30.2964 19.2615L30.4005 19.4012V20.7934L30.6096 22.6732C30.5922 22.7894 30.5341 22.8475 30.4361 22.8475V22.8822L30.2964 22.8475L26.6063 22.9863L26.5014 23.0219V23.126L25.9731 30.2191V30.4975L25.9384 30.8107L25.9731 30.8453V30.8809L25.764 32.4119L25.7293 32.4475H25.6599C25.3641 32.3313 25.0744 32.2506 24.7899 32.2038C24.7899 32.1517 24.5115 32.0936 23.9546 32.0303C23.9546 31.9609 23.1773 31.8681 21.622 31.7518L21.5526 31.6477L21.7964 30.3943C21.8545 30.272 21.9126 29.9588 21.9707 29.454C22.0288 29.454 22.0748 29.1408 22.1095 28.5145C22.2023 28.3523 22.2483 28.132 22.2483 27.8527L22.6716 23.4044H22.6022V23.3697C22.5207 23.4452 22.1728 23.5033 21.5578 23.5441L21.2447 23.6829L21.105 23.5788V20.9331L21.0703 20.5853C21.1336 20.5037 21.4242 20.4109 21.9404 20.3068C22.2648 20.3068 22.5441 20.214 22.7757 20.0284L22.741 19.8896L22.8104 18.2883L22.741 17.3835H22.7757L22.6716 17.2447H22.5328L21.7669 17.4182C21.622 17.4182 21.4364 17.4651 21.21 17.5579H21.1753L21.0712 17.4538L21.1059 17.21V14.0421L21.0712 13.7984C21.1172 13.7229 21.3149 13.677 21.6628 13.6596C21.6741 13.5841 21.9872 13.526 22.6031 13.4852C22.6317 13.4037 22.9804 13.3465 23.6475 13.3109C23.6995 13.2241 24.0595 13.166 24.7266 13.1374C24.9591 13.0498 25.4231 12.9804 26.1197 12.9284C26.2004 12.8763 26.6766 12.8182 27.5466 12.7549C27.6047 12.6915 28.1035 12.6447 29.043 12.6152C29.4784 12.5285 30.6972 12.4244 32.6984 12.3021H33.2206L33.7428 12.2656Z" fill="#643869"/>
<path d="M8.76843 30.9156C9.70006 30.8445 10.1711 30.8462 10.1815 30.9199C11.814 30.8176 12.6364 30.8037 12.6468 30.8783C14.235 30.6987 15.1328 30.6233 15.3384 30.6536L15.3879 30.6467L15.4304 30.5912C16.2683 30.5747 17.3145 30.4784 18.567 30.3032C18.7397 30.2789 18.8949 30.3084 19.0329 30.3899L19.0372 31.1455L19.313 33.4771L19.3972 33.7174L19.2202 33.8935L17.0933 34.191L13.2496 34.4756L12.8541 34.5311C11.9164 34.4947 11.1461 34.5172 10.5441 34.6014L7.60606 34.5077L7.45773 34.5285L7.29552 34.4504C7.03875 32.6114 6.99105 31.4256 7.15065 30.8904C8.08923 30.8011 8.62791 30.8098 8.76843 30.9156Z" fill="#643869"/>
<path d="M25.4714 6.22635C25.4497 5.9774 25.4593 5.84554 25.5001 5.83427C25.7308 4.51489 25.9563 3.54249 26.1741 2.9162L26.1411 2.78955C26.1133 2.68459 25.7672 0.0371577 25.5816 0.00419489C24.9371 -0.110307 23.8276 2.15024 23.1371 2.99166C22.7702 3.67954 22.3608 4.74563 21.9071 6.19079L21.8984 6.22635H25.4714Z" fill="white"/>
<path d="M28.5808 6.22618C28.5669 6.02407 28.5773 5.91217 28.6138 5.90263C28.8445 4.58325 29.0701 3.61085 29.2878 2.98456L29.2548 2.85791C29.2271 2.75295 28.881 0.105517 28.6953 0.0725543C28.0508 -0.041948 26.9414 2.2186 26.2509 3.06002C25.8874 3.7427 25.4806 4.79838 25.0312 6.22532H28.5808V6.22618Z" fill="white"/>
<path d="M32.0395 7.01486C32.0404 7.00878 32.0404 7.00271 32.0412 6.99577C32.0499 6.62624 32.0898 6.37642 32.1601 6.2463C32.1358 5.9826 32.1453 5.84554 32.187 5.83427C32.4177 4.51576 32.6433 3.54249 32.861 2.9162L32.828 2.78955C32.8003 2.68459 32.4542 0.0371577 32.2685 0.00419489C31.624 -0.110307 30.5145 2.15024 29.8241 2.99166C29.4571 3.67954 29.0477 4.74563 28.594 6.19079L28.3867 7.01486H32.0395Z" fill="white"/>
<path d="M58.775 28.0625C56.9417 28.0625 55.3667 27.6958 54.05 26.9625C52.75 26.2125 51.75 25.1625 51.05 23.8125C50.35 22.4458 50 20.8375 50 18.9875C50 17.1375 50.35 15.5375 51.05 14.1875C51.75 12.8375 52.75 11.7958 54.05 11.0625C55.3667 10.3125 56.9417 9.9375 58.775 9.9375C59.9583 9.9375 61.075 10.1208 62.125 10.4875C63.1917 10.8542 64.0667 11.3792 64.75 12.0625L63.7 14.6125C62.95 13.9792 62.1833 13.5208 61.4 13.2375C60.6167 12.9375 59.775 12.7875 58.875 12.7875C57.0917 12.7875 55.7333 13.3292 54.8 14.4125C53.8667 15.4792 53.4 17.0042 53.4 18.9875C53.4 20.9708 53.8667 22.5042 54.8 23.5875C55.7333 24.6708 57.0917 25.2125 58.875 25.2125C59.775 25.2125 60.6167 25.0708 61.4 24.7875C62.1833 24.4875 62.95 24.0208 63.7 23.3875L64.75 25.9375C64.0667 26.6042 63.1917 27.1292 62.125 27.5125C61.075 27.8792 59.9583 28.0625 58.775 28.0625Z" fill="white"/>
<path d="M72.3889 28.0625C71.0055 28.0625 69.8139 27.8042 68.8139 27.2875C67.8139 26.7708 67.0389 26.0375 66.4889 25.0875C65.9555 24.1375 65.6889 23.0125 65.6889 21.7125C65.6889 20.4458 65.9472 19.3375 66.4639 18.3875C66.9972 17.4375 67.7222 16.6958 68.6389 16.1625C69.5722 15.6125 70.6305 15.3375 71.8139 15.3375C73.5472 15.3375 74.9139 15.8875 75.9139 16.9875C76.9305 18.0875 77.4389 19.5875 77.4389 21.4875V22.4125H68.6889C68.9222 24.5958 70.1722 25.6875 72.4389 25.6875C73.1222 25.6875 73.8055 25.5875 74.4889 25.3875C75.1722 25.1708 75.7972 24.8375 76.3639 24.3875L77.2389 26.4875C76.6555 26.9708 75.9222 27.3542 75.0389 27.6375C74.1555 27.9208 73.2722 28.0625 72.3889 28.0625ZM71.9389 17.4625C71.0222 17.4625 70.2805 17.7458 69.7139 18.3125C69.1472 18.8792 68.8055 19.6458 68.6889 20.6125H74.8389C74.7722 19.5958 74.4889 18.8208 73.9889 18.2875C73.5055 17.7375 72.8222 17.4625 71.9389 17.4625Z" fill="white"/>
<path d="M84.1637 28.0625C82.7137 28.0625 81.6387 27.6708 80.9387 26.8875C80.2553 26.0875 79.9137 24.9208 79.9137 23.3875V10.1875H83.0387V23.2375C83.0387 24.7375 83.672 25.4875 84.9387 25.4875C85.122 25.4875 85.3053 25.4792 85.4887 25.4625C85.672 25.4458 85.847 25.4125 86.0137 25.3625L85.9637 27.8375C85.3637 27.9875 84.7637 28.0625 84.1637 28.0625Z" fill="white"/>
<path d="M93.8 28.0625C92.4167 28.0625 91.225 27.8042 90.225 27.2875C89.225 26.7708 88.45 26.0375 87.9 25.0875C87.3667 24.1375 87.1 23.0125 87.1 21.7125C87.1 20.4458 87.3583 19.3375 87.875 18.3875C88.4083 17.4375 89.1333 16.6958 90.05 16.1625C90.9833 15.6125 92.0417 15.3375 93.225 15.3375C94.9583 15.3375 96.325 15.8875 97.325 16.9875C98.3417 18.0875 98.85 19.5875 98.85 21.4875V22.4125H90.1C90.3333 24.5958 91.5833 25.6875 93.85 25.6875C94.5333 25.6875 95.2167 25.5875 95.9 25.3875C96.5833 25.1708 97.2083 24.8375 97.775 24.3875L98.65 26.4875C98.0667 26.9708 97.3333 27.3542 96.45 27.6375C95.5667 27.9208 94.6833 28.0625 93.8 28.0625ZM93.35 17.4625C92.4333 17.4625 91.6917 17.7458 91.125 18.3125C90.5583 18.8792 90.2167 19.6458 90.1 20.6125H96.25C96.1833 19.5958 95.9 18.8208 95.4 18.2875C94.9167 17.7375 94.2333 17.4625 93.35 17.4625Z" fill="white"/>
<path d="M108.375 28.0625C107.475 28.0625 106.666 27.8625 105.95 27.4625C105.25 27.0625 104.725 26.5208 104.375 25.8375V27.8125H101.325V10.1875H104.45V17.3875C104.816 16.7708 105.341 16.2792 106.025 15.9125C106.725 15.5292 107.508 15.3375 108.375 15.3375C109.458 15.3375 110.4 15.5958 111.2 16.1125C112 16.6292 112.625 17.3625 113.075 18.3125C113.525 19.2458 113.75 20.3708 113.75 21.6875C113.75 22.9875 113.525 24.1208 113.075 25.0875C112.625 26.0375 111.991 26.7708 111.175 27.2875C110.375 27.8042 109.441 28.0625 108.375 28.0625ZM107.5 25.6875C108.433 25.6875 109.183 25.3542 109.75 24.6875C110.316 24.0042 110.6 23.0042 110.6 21.6875C110.6 20.3542 110.316 19.3625 109.75 18.7125C109.183 18.0458 108.433 17.7125 107.5 17.7125C106.566 17.7125 105.816 18.0458 105.25 18.7125C104.683 19.3625 104.4 20.3542 104.4 21.6875C104.4 23.0042 104.683 24.0042 105.25 24.6875C105.816 25.3542 106.566 25.6875 107.5 25.6875Z" fill="white"/>
<path d="M116.353 27.8125V10.1875H127.878V12.7375H119.553V17.7125H127.353V20.2625H119.553V27.8125H116.353Z" fill="white"/>
<path d="M133.628 28.0625C132.745 28.0625 131.953 27.8958 131.253 27.5625C130.57 27.2125 130.028 26.7458 129.628 26.1625C129.245 25.5792 129.053 24.9208 129.053 24.1875C129.053 23.2875 129.286 22.5792 129.753 22.0625C130.22 21.5292 130.978 21.1458 132.028 20.9125C133.078 20.6792 134.486 20.5625 136.253 20.5625H137.128V20.0375C137.128 19.2042 136.945 18.6042 136.578 18.2375C136.211 17.8708 135.595 17.6875 134.728 17.6875C134.045 17.6875 133.345 17.7958 132.628 18.0125C131.911 18.2125 131.186 18.5292 130.453 18.9625L129.553 16.8375C129.986 16.5375 130.495 16.2792 131.078 16.0625C131.678 15.8292 132.303 15.6542 132.953 15.5375C133.62 15.4042 134.245 15.3375 134.828 15.3375C136.611 15.3375 137.936 15.7542 138.803 16.5875C139.67 17.4042 140.103 18.6792 140.103 20.4125V27.8125H137.178V25.8625C136.895 26.5458 136.445 27.0875 135.828 27.4875C135.211 27.8708 134.478 28.0625 133.628 28.0625ZM134.278 25.9125C135.095 25.9125 135.77 25.6292 136.303 25.0625C136.853 24.4958 137.128 23.7792 137.128 22.9125V22.3625H136.278C134.711 22.3625 133.62 22.4875 133.003 22.7375C132.403 22.9708 132.103 23.4042 132.103 24.0375C132.103 24.5875 132.295 25.0375 132.678 25.3875C133.061 25.7375 133.595 25.9125 134.278 25.9125Z" fill="white"/>
<path d="M143.275 27.8125V15.5875H146.325V17.7375C146.925 16.2875 148.208 15.4875 150.175 15.3375L151.125 15.2625L151.325 17.9125L149.525 18.0875C147.475 18.2875 146.45 19.3375 146.45 21.2375V27.8125H143.275Z" fill="white"/>
<path d="M153.115 27.8125V15.5875H156.165V17.4625C156.532 16.7958 157.04 16.2792 157.69 15.9125C158.34 15.5292 159.09 15.3375 159.94 15.3375C161.773 15.3375 162.973 16.1375 163.54 17.7375C163.923 16.9875 164.473 16.4042 165.19 15.9875C165.907 15.5542 166.723 15.3375 167.64 15.3375C170.39 15.3375 171.765 17.0125 171.765 20.3625V27.8125H168.64V20.4875C168.64 19.5542 168.482 18.8708 168.165 18.4375C167.865 18.0042 167.348 17.7875 166.615 17.7875C165.798 17.7875 165.157 18.0792 164.69 18.6625C164.223 19.2292 163.99 20.0208 163.99 21.0375V27.8125H160.865V20.4875C160.865 19.5542 160.707 18.8708 160.39 18.4375C160.09 18.0042 159.582 17.7875 158.865 17.7875C158.048 17.7875 157.407 18.0792 156.94 18.6625C156.473 19.2292 156.24 20.0208 156.24 21.0375V27.8125H153.115Z" fill="white"/>
</svg>
