<svg xmlns="http://www.w3.org/2000/svg" width="371.443" height="371.443" viewBox="0 0 371.443 371.443" xml:space="preserve">
  <path d="M352.602 0H18.842C8.436 0 .002 8.435.002 18.841v333.762c0 10.404 8.434 18.84 18.84 18.84h333.759c10.406 0 18.84-8.436 18.84-18.84V18.841C371.441 8.434 363.008 0 352.602 0M208.973 283.811c-8.408 2.508-22.473 5.496-41.723 5.496-60.666 0-99.867-40.063-99.867-102.063 0-62.193 43.211-105.63 105.082-105.63 14.167 0 26.765 1.692 37.439 5.031 9.643 3.016 15.014 13.276 11.998 22.919s-13.273 15.015-22.918 11.998c-4.908-1.533-13.49-3.363-26.52-3.363-41.607 0-68.496 27.102-68.496 69.045 0 41.612 23.064 65.479 63.281 65.479 15.621 0 26.298-2.488 31.271-3.972 9.68-2.887 19.873 2.623 22.756 12.304 2.89 9.682-2.619 19.871-12.303 22.756m94.636-145.008c-2.219 9.854-11.998 16.05-21.861 13.83a19.4 19.4 0 0 0-4.23-.473c-1.477 0-5.148.233-7.389 2.405l-.125.121c-.947.9-4.037 4.816-4.037 17.387v3.587h8.521c10.104 0 18.293 8.19 18.293 18.292 0 10.104-8.189 18.293-18.293 18.293h-8.521v59.291c0 10.104-8.189 18.293-18.293 18.293s-18.293-8.188-18.293-18.293v-59.291h-4.219c-10.104 0-18.291-8.188-18.291-18.293 0-10.102 8.188-18.292 18.291-18.292h4.219v-3.587c0-19.363 5.164-34.111 15.344-43.835 11.406-11.016 25.439-12.663 32.793-12.663 4.111 0 8.234.459 12.262 1.365 9.855 2.218 16.048 12.006 13.829 21.863"/>
</svg>
